<svg width="327" height="442" viewBox="0 0 327 442" fill="none" xmlns="http://www.w3.org/2000/svg">
<defs>
<linearGradient id="paint0_linear_1991_97011" x1="163.5" y1="0" x2="163.5" y2="449.5" gradientUnits="userSpaceOnUse">
<stop stop-color="#56FAFA"/>
<stop offset="1" stop-color="#FFE7A9"/>
</linearGradient>
<linearGradient id="paint1_linear_1991_97011" x1="127" y1="14" x2="127" y2="50" gradientUnits="userSpaceOnUse">
<stop offset="0.395833" stop-color="white"/>
<stop offset="1" stop-color="white" stop-opacity="0.4"/>
</linearGradient>
<linearGradient id="paint2_linear_1991_97011" x1="307" y1="111" x2="307" y2="177" gradientUnits="userSpaceOnUse">
<stop offset="0.395833" stop-color="white"/>
<stop offset="1" stop-color="white" stop-opacity="0.4"/>
</linearGradient>
<linearGradient id="paint3_linear_1991_97011" x1="18" y1="96" x2="18" y2="153" gradientUnits="userSpaceOnUse">
<stop offset="0.395833" stop-color="white"/>
<stop offset="1" stop-color="white" stop-opacity="0.4"/>
</linearGradient>
</defs>
<rect width="327" height="442" fill="url(#paint0_linear_1991_97011)"/>
<rect width="327" height="442" fill="white" fill-opacity="0.32"/>
<path d="M147.849 30.8601C147.887 30.5292 147.907 30.1964 147.909 29.8633C147.918 28.3462 147.566 26.8487 146.88 25.4944C146.195 24.1401 145.195 22.9679 143.965 22.0747C142.735 21.1816 141.31 20.5931 139.807 20.3579C138.303 20.1227 136.766 20.2476 135.32 20.7222C134.043 18.2787 131.991 16.3246 129.485 15.1637C126.978 14.0027 124.157 13.7 121.46 14.3026C118.763 14.9051 116.341 16.3792 114.572 18.4956C112.802 20.612 111.783 23.2521 111.673 26.0055H111.033C107.842 26.0055 104.781 27.2694 102.525 29.5193C100.268 31.7692 99 34.8207 99 38.0026C99 41.1844 100.268 44.2359 102.525 46.4858C104.781 48.7357 107.842 49.9997 111.033 49.9997H145.139C147.51 50.0195 149.807 49.18 151.603 47.6373C153.4 46.0946 154.573 43.9538 154.904 41.6134C155.235 39.2729 154.703 36.8921 153.405 34.914C152.107 32.9359 150.132 31.4952 147.849 30.8601Z" fill="url(#paint1_linear_1991_97011)"/>
<path d="M345.719 141.91C345.79 141.304 345.827 140.693 345.83 140.083C345.849 137.301 345.194 134.556 343.92 132.073C342.647 129.59 340.792 127.441 338.507 125.804C336.223 124.166 333.576 123.087 330.784 122.656C327.992 122.225 325.136 122.454 322.452 123.324C320.079 118.844 316.269 115.262 311.614 113.133C306.959 111.005 301.72 110.45 296.712 111.555C291.703 112.659 287.206 115.362 283.919 119.242C280.632 123.122 278.74 127.962 278.536 133.01H277.348C271.421 133.01 265.737 135.327 261.546 139.452C257.354 143.577 255 149.171 255 155.005C255 160.838 257.354 166.432 261.546 170.557C265.737 174.682 271.421 176.999 277.348 176.999H340.687C345.09 177.036 349.356 175.497 352.692 172.668C356.028 169.84 358.206 165.915 358.822 161.624C359.437 157.334 358.448 152.969 356.037 149.342C353.627 145.716 349.96 143.075 345.719 141.91Z" fill="url(#paint2_linear_1991_97011)"/>
<path d="M51.5069 122.695C51.5685 122.171 51.6007 121.644 51.6033 121.117C51.6189 118.715 51.0524 116.344 49.9504 114.199C48.8484 112.055 47.2427 110.199 45.266 108.785C43.2892 107.371 40.9981 106.439 38.5822 106.067C36.1662 105.694 33.6947 105.892 31.372 106.643C29.3187 102.775 26.0215 99.6806 21.9932 97.8425C17.9648 96.0043 13.4309 95.525 9.09652 96.4791C4.76214 97.4331 0.870159 99.7671 -1.97427 103.118C-4.8187 106.469 -6.45616 110.649 -6.63207 115.009H-7.66054C-12.7897 115.009 -17.7088 117.01 -21.3356 120.572C-24.9625 124.135 -27 128.966 -27 134.004C-27 139.042 -24.9625 143.874 -21.3356 147.436C-17.7088 150.998 -12.7897 152.999 -7.66054 152.999H47.1521C50.9622 153.031 54.6543 151.702 57.5412 149.259C60.4281 146.816 62.3132 143.427 62.8457 139.721C63.3783 136.015 62.5219 132.246 60.4361 129.114C58.3503 125.982 55.1771 123.701 51.5069 122.695Z" fill="url(#paint3_linear_1991_97011)" fill-opacity="0.6"/>
</svg>
